<svg width="50" height="50" viewBox="0 0 50 50" fill="none" xmlns="http://www.w3.org/2000/svg">
<rect width="50" height="50" rx="25" fill="#1864AB"/>
<path d="M25.425 26.5C25.9583 26.5 26.425 26.6917 26.825 27.075C27.2083 27.475 27.4 27.9417 27.4 28.475C27.4 29.0083 27.2083 29.475 26.825 29.875C26.425 30.275 25.9583 30.475 25.425 30.475C24.875 30.475 24.4083 30.275 24.025 29.875C23.625 29.475 23.425 29.0083 23.425 28.475C23.425 27.9417 23.625 27.475 24.025 27.075C24.4083 26.6917 24.875 26.5 25.425 26.5ZM27.025 12.5L27.025 25H23.8L23.8 12.5H27.025Z" fill="white"/>
</svg>
