<svg width="32" height="32" viewBox="0 0 32 32" fill="none" xmlns="http://www.w3.org/2000/svg">
<path d="M4.84309 25.5457H30.751C30.8283 25.5453 30.9057 25.5371 30.9812 25.5214C30.987 25.5214 30.9919 25.5221 30.9976 25.5221C31.5508 25.5221 31.9995 25.1446 32 24.6788V0.843276C31.9995 0.377522 31.5508 0.000382785 30.9976 0H4.84491C2.17412 0.0025838 0.00949056 1.82349 0.00641952 4.07044C0.00812565 4.09963 0.0117654 4.12911 0.0169976 4.15791C0.0134715 6.23108 -0.0171252 25.2791 0.0134715 27.7833C0.0117654 27.8323 0.00459964 27.8794 0.00459964 27.9295C0.00903559 30.0759 1.99293 31.8512 4.53871 31.9873C4.58944 31.9947 4.64051 31.9992 4.69158 32H30.9976C31.5508 32 31.9995 31.6224 32 31.157V27.9822C32 27.5164 31.5508 27.1389 30.9976 27.1389C30.444 27.1389 29.9953 27.5164 29.9953 27.9822V30.3134H4.84309C3.32485 30.3111 2.07858 29.3033 2.01557 28.0271C2.01682 28.0043 2.02171 27.983 2.02137 27.9598C2.02046 27.9228 2.01909 27.8652 2.01818 27.7886C2.10747 26.5303 3.34533 25.548 4.84309 25.5457ZM5.52691 4.07044C5.52691 3.60469 5.97562 3.22717 6.52921 3.22717C7.08245 3.22717 7.53162 3.60469 7.53162 4.07044V21.2009C7.53162 21.6666 7.08245 22.0441 6.52921 22.0441C5.97562 22.0441 5.52691 21.6666 5.52691 21.2009V4.07044Z" fill="#1864AB"/>
</svg>
